<svg xmlns="http://www.w3.org/2000/svg" viewBox="0 0 100 104.3">
<path d="M55.87 98.60 C40.91 96.55 27.60 88.43 17.62 75.27 C13.48 69.80 10.00 62.91 8.17 56.53 C5.54 47.36 4.95 40.17 6.02 30.51 C6.40 27.09 7.20 23.97 8.48 20.83 C11.01 14.67 15.65 9.68 21.32 7.03 C24.35 5.61 30.17 5.07 33.51 5.89 C36.80 6.70 40.94 9.26 43.00 11.76 C43.55 12.43 44.28 13.31 44.61 13.72 C45.84 15.22 47.82 19.32 49.26 23.34 C50.06 25.58 51.38 33.45 51.39 36.08 C51.41 38.91 53.05 49.62 54.05 53.40 C56.21 61.61 62.31 69.65 69.87 74.27 C75.29 77.59 81.63 79.61 86.77 79.65 C90.51 79.68 93.04 80.97 94.25 83.47 C94.85 84.71 94.74 87.23 94.02 88.62 C91.81 92.93 83.10 96.95 73.13 98.27 C72.07 98.41 70.68 98.62 70.04 98.73 C68.34 99.02 58.30 98.93 55.87 98.60 Z" fill="#c76d20" stroke="#43240f" stroke-width="3.2" stroke-linejoin="round" fill-rule="evenodd"/>
<clipPath id="c"><path d="M55.87 98.60 C40.91 96.55 27.60 88.43 17.62 75.27 C13.48 69.80 10.00 62.91 8.17 56.53 C5.54 47.36 4.95 40.17 6.02 30.51 C6.40 27.09 7.20 23.97 8.48 20.83 C11.01 14.67 15.65 9.68 21.32 7.03 C24.35 5.61 30.17 5.07 33.51 5.89 C36.80 6.70 40.94 9.26 43.00 11.76 C43.55 12.43 44.28 13.31 44.61 13.72 C45.84 15.22 47.82 19.32 49.26 23.34 C50.06 25.58 51.38 33.45 51.39 36.08 C51.41 38.91 53.05 49.62 54.05 53.40 C56.21 61.61 62.31 69.65 69.87 74.27 C75.29 77.59 81.63 79.61 86.77 79.65 C90.51 79.68 93.04 80.97 94.25 83.47 C94.85 84.71 94.74 87.23 94.02 88.62 C91.81 92.93 83.10 96.95 73.13 98.27 C72.07 98.41 70.68 98.62 70.04 98.73 C68.34 99.02 58.30 98.93 55.87 98.60 Z"/></clipPath>
<path d="M57.86 98.26 C57.58 98.16 56.24 97.97 54.88 97.85 C53.50 97.72 52.20 97.48 51.94 97.31 C51.69 97.15 50.86 96.92 50.10 96.81 C48.08 96.51 43.17 94.93 42.83 94.47 C42.67 94.26 40.68 93.41 40.04 93.28 C39.74 93.22 39.30 92.98 39.05 92.75 C38.56 92.29 37.40 91.65 37.06 91.65 C36.73 91.65 33.83 89.88 33.83 89.68 C33.83 89.58 33.74 89.51 33.63 89.51 C33.30 89.51 30.88 87.79 30.75 87.46 C30.69 87.30 30.28 86.98 29.83 86.75 C28.77 86.21 25.45 83.21 23.87 81.37 C23.52 80.96 23.04 80.52 22.80 80.39 C22.57 80.26 22.16 79.82 21.88 79.42 C21.61 79.02 20.82 78.09 20.12 77.36 C19.43 76.63 18.70 75.71 18.50 75.33 C18.30 74.95 17.89 74.39 17.58 74.07 C16.70 73.20 14.69 70.11 13.69 68.09 C13.20 67.09 12.72 66.23 12.64 66.17 C12.55 66.11 12.36 65.67 12.21 65.20 C12.06 64.73 11.86 64.25 11.78 64.13 C11.69 64.01 11.50 63.56 11.36 63.12 C11.22 62.67 11.02 62.31 10.92 62.31 C10.70 62.31 9.35 58.78 8.92 57.07 C8.74 56.36 8.49 55.38 8.37 54.90 C8.24 54.42 8.14 53.81 8.14 53.56 C8.14 53.31 8.05 53.10 7.95 53.10 C7.84 53.10 7.71 52.79 7.64 52.41 C7.58 52.03 7.33 50.75 7.09 49.57 C6.84 48.39 6.64 46.97 6.64 46.41 C6.64 45.85 6.54 45.40 6.42 45.40 C6.30 45.40 6.20 44.76 6.20 43.95 C6.19 43.16 6.11 41.76 6.01 40.84 C5.80 38.81 6.24 31.68 6.73 29.23 C7.43 25.72 8.00 23.45 8.23 23.22 C8.36 23.09 8.70 22.27 8.98 21.40 C9.26 20.52 9.56 19.76 9.64 19.70 C9.92 19.50 10.92 17.78 10.92 17.51 C10.93 16.82 15.21 11.35 15.74 11.35 C15.79 11.35 16.13 11.06 16.52 10.71 C16.91 10.36 17.80 9.78 18.51 9.43 C19.23 9.07 20.07 8.55 20.40 8.27 C22.47 6.49 30.62 5.30 33.08 6.42 C33.60 6.66 34.55 6.99 35.20 7.16 C36.47 7.49 37.25 7.85 37.58 8.26 C37.70 8.40 38.27 8.78 38.85 9.09 C40.22 9.84 41.76 11.11 41.76 11.48 C41.76 11.64 41.88 11.78 42.03 11.78 C42.32 11.78 43.82 13.64 44.31 14.61 C44.47 14.93 44.77 15.37 44.96 15.57 C45.49 16.15 47.11 19.40 47.11 19.90 C47.11 20.01 47.20 20.12 47.31 20.16 C47.43 20.20 47.73 20.86 47.98 21.63 C48.24 22.39 48.57 23.26 48.72 23.55 C48.87 23.85 49.09 24.62 49.22 25.27 C49.35 25.92 49.61 27.22 49.80 28.16 C50.33 30.81 50.48 31.80 50.75 34.80 C50.89 36.33 51.14 38.83 51.31 40.36 C51.48 41.90 51.72 44.06 51.84 45.18 C51.95 46.30 52.13 47.36 52.22 47.54 C52.39 47.84 52.55 48.65 53.13 52.19 C53.27 53.05 53.47 53.75 53.57 53.75 C53.67 53.75 53.75 53.94 53.75 54.17 C53.75 54.55 54.09 55.61 54.61 56.85 C55.65 59.35 55.88 59.92 56.01 60.39 C56.18 61.04 57.22 62.74 57.44 62.74 C57.53 62.74 57.60 62.84 57.60 62.97 C57.60 63.25 59.14 65.53 59.85 66.30 C60.15 66.61 60.39 66.96 60.39 67.07 C60.39 67.44 65.04 71.90 65.82 72.27 C66.24 72.47 66.60 72.75 66.60 72.88 C66.60 73.17 69.29 74.95 69.73 74.95 C69.89 74.95 70.02 75.04 70.02 75.16 C70.02 75.41 72.00 76.45 72.48 76.45 C72.66 76.45 73.50 76.82 74.36 77.27 C75.21 77.72 76.56 78.26 77.36 78.48 C78.15 78.69 78.80 78.93 78.80 79.01 C78.80 79.34 84.04 80.08 86.45 80.08 C90.09 80.09 93.36 81.90 94.07 84.31 C94.31 85.14 94.08 87.26 93.65 88.16 C93.00 89.52 89.44 92.72 88.57 92.72 C88.39 92.72 88.17 92.85 88.07 93.01 C87.83 93.43 86.00 94.31 84.48 94.74 C83.77 94.95 82.90 95.24 82.55 95.39 C82.19 95.55 81.28 95.79 80.51 95.93 C79.75 96.07 78.98 96.31 78.80 96.46 C78.35 96.85 75.87 97.43 74.68 97.43 C74.13 97.43 73.42 97.54 73.09 97.68 C71.89 98.17 58.92 98.67 57.86 98.26 Z M64.24 96.22 L64.94 96.08 L64.76 94.56 C64.12 89.28 65.38 83.20 67.88 79.44 C68.36 78.73 68.52 78.23 68.52 77.51 C68.52 76.56 68.49 76.51 67.29 75.71 C66.09 74.91 63.02 72.53 61.94 71.57 C61.39 71.09 59.31 70.85 59.31 71.27 C59.31 71.37 59.06 71.57 58.76 71.71 C56.81 72.59 52.52 77.46 51.93 79.44 C51.85 79.74 51.66 80.17 51.51 80.41 C50.28 82.37 49.04 89.68 49.35 93.04 L49.50 94.63 L50.61 94.94 C53.82 95.85 62.18 96.63 64.24 96.22 Z M83.16 93.12 C87.46 91.81 90.43 89.99 91.49 88.03 C92.28 86.56 92.34 84.35 91.60 83.69 C90.63 82.85 89.46 82.45 87.90 82.44 C87.08 82.43 85.34 82.28 84.05 82.09 C82.75 81.91 81.26 81.71 80.72 81.65 L79.75 81.55 L79.26 82.69 C78.98 83.31 78.71 84.33 78.64 84.95 C78.58 85.57 78.44 86.08 78.33 86.08 C77.79 86.08 78.46 91.28 79.24 93.18 C79.58 94.00 80.36 93.99 83.16 93.12 Z M34.58 85.28 C34.94 82.31 37.14 76.64 38.97 73.99 C39.32 73.47 39.61 73.00 39.61 72.93 C39.61 72.87 39.93 72.50 40.31 72.10 C40.69 71.71 41.64 70.72 42.42 69.90 C43.20 69.08 44.05 68.24 44.31 68.03 C45.78 66.83 50.66 64.05 51.32 64.03 C51.45 64.03 52.20 63.83 52.98 63.59 L54.39 63.15 L54.39 62.31 C54.39 61.47 54.09 60.54 53.62 59.96 C53.12 59.32 51.46 55.01 51.16 53.57 C51.06 53.06 50.92 52.56 50.85 52.45 C50.66 52.14 46.06 52.21 44.75 52.54 C44.10 52.71 43.05 52.90 42.40 52.98 C41.26 53.11 38.70 54.07 37.37 54.86 C37.01 55.07 36.29 55.45 35.76 55.71 C34.56 56.30 32.64 57.55 31.94 58.19 C31.65 58.46 31.33 58.67 31.22 58.67 C30.95 58.67 27.33 62.26 26.68 63.17 C21.44 70.51 19.93 74.28 21.58 75.97 C21.93 76.33 22.26 76.72 22.30 76.84 C22.36 77.01 25.34 80.32 26.25 81.24 C26.75 81.74 29.05 83.68 30.78 85.06 C32.38 86.34 32.70 86.51 33.51 86.51 L34.43 86.51 L34.58 85.28 Z M13.04 54.71 C13.59 53.67 14.38 52.62 15.14 51.89 C15.53 51.51 15.85 51.14 15.85 51.07 C15.85 50.99 16.11 50.66 16.43 50.33 C16.76 50.00 17.39 49.33 17.84 48.85 C19.10 47.50 20.89 46.04 21.28 46.04 C21.47 46.04 21.63 45.92 21.63 45.77 C21.63 45.48 22.75 44.69 23.51 44.45 C23.77 44.36 23.98 44.21 23.98 44.09 C23.98 43.93 26.28 42.75 28.16 41.96 C33.89 39.54 42.39 38.68 45.96 40.18 C46.35 40.34 47.15 40.47 47.74 40.47 L48.82 40.47 L48.82 39.67 C48.81 38.20 47.73 29.28 47.31 27.25 C47.05 25.97 46.80 25.79 44.21 25.05 C41.52 24.27 34.24 23.93 32.50 24.50 C32.00 24.66 31.05 24.85 30.41 24.92 C28.82 25.08 27.82 25.26 27.30 25.47 C27.07 25.56 26.60 25.75 26.27 25.88 C25.95 26.02 25.43 26.12 25.14 26.12 C24.84 26.12 23.96 26.45 23.17 26.85 C21.89 27.49 19.71 28.54 17.71 29.47 C15.36 30.57 11.86 33.16 8.91 36.00 L8.28 36.60 L8.43 40.73 C8.59 45.02 8.92 48.01 9.48 50.21 C9.66 50.92 9.97 52.22 10.16 53.10 C10.74 55.66 10.62 55.49 11.72 55.42 C12.55 55.36 12.74 55.26 13.04 54.71 Z" fill="#7e3f18" fill-rule="evenodd" clip-path="url(#c)"/>
<path d="M55.87 98.60 C40.91 96.55 27.60 88.43 17.62 75.27 C13.48 69.80 10.00 62.91 8.17 56.53 C5.54 47.36 4.95 40.17 6.02 30.51 C6.40 27.09 7.20 23.97 8.48 20.83 C11.01 14.67 15.65 9.68 21.32 7.03 C24.35 5.61 30.17 5.07 33.51 5.89 C36.80 6.70 40.94 9.26 43.00 11.76 C43.55 12.43 44.28 13.31 44.61 13.72 C45.84 15.22 47.82 19.32 49.26 23.34 C50.06 25.58 51.38 33.45 51.39 36.08 C51.41 38.91 53.05 49.62 54.05 53.40 C56.21 61.61 62.31 69.65 69.87 74.27 C75.29 77.59 81.63 79.61 86.77 79.65 C90.51 79.68 93.04 80.97 94.25 83.47 C94.85 84.71 94.74 87.23 94.02 88.62 C91.81 92.93 83.10 96.95 73.13 98.27 C72.07 98.41 70.68 98.62 70.04 98.73 C68.34 99.02 58.30 98.93 55.87 98.60 Z" fill="none" stroke="#43240f" stroke-width="3.2" stroke-linejoin="round" fill-rule="evenodd"/>
</svg>
